<svg xmlns="http://www.w3.org/2000/svg" viewBox="0 0 500 300">	<g fill="#AAA" stroke="#000000" stroke-width="1"><path xmlns="http://www.w3.org/2000/svg" d="M92.06731,10v0l15.91775,9.72596l12.58393,11.96633l8.99832,13.35581l3.20988,16.43576l-1.13092,15.30545l-4.93795,13.21069l6.079,5.17913l5.23768,6.71729l4.0423,8.10358l-18.66521,5.52517l1.98158,6.601l0.53735,7.41929l-1.12273,7.91911l-2.92902,8.05204l-4.80197,7.78466l-10.17913,-2.58126l-8.45377,-4.6104l-6.3671,-6.10962l-6.94593,9.39231l-10.15508,7.59232l-12.89899,4.97689l-6.42463,-8.55234l-4.43107,-9.12718l-2.44557,-9.28201l-13.08029,-4.47879l-12.55499,-8.36584l-11.06346,-12.15537l-2.06731,-14.47068l0.62729,-15.17106l3.49774,-15.35825l7.72155,-13.9222l10.22723,-12.57528l12.49351,-10.77493l14.43805,-8.56454l15.98654,-6.00248l17.0754,-3.16057" fill="#888888" fill-rule="nonzero" stroke="#000000" stroke-width="2" stroke-linecap="butt" stroke-linejoin="miter" stroke-miterlimit="10" stroke-dasharray="" stroke-dashoffset="0" font-family="none" font-weight="none" font-size="none" text-anchor="none" style="mix-blend-mode: normal"/>  </g>	</svg>